<svg width="67" height="67" viewBox="0 0 67 67" fill="none" xmlns="http://www.w3.org/2000/svg">
<g clip-path="url(#clip0)">
<path d="M46.0624 29.3097C46.0624 29.865 45.8418 30.3975 45.4491 30.7902C45.0565 31.1828 44.5239 31.4034 43.9686 31.4034H23.0311C22.4758 31.4034 21.9433 31.1828 21.5506 30.7902C21.158 30.3975 20.9374 29.865 20.9374 29.3097C20.9374 28.7544 21.158 28.2218 21.5506 27.8292C21.9433 27.4365 22.4758 27.2159 23.0311 27.2159H43.9686C44.5239 27.2159 45.0565 27.4365 45.4491 27.8292C45.8418 28.2218 46.0624 28.7544 46.0624 29.3097ZM43.9686 35.5909H23.0311C22.4758 35.5909 21.9433 35.8115 21.5506 36.2041C21.158 36.5968 20.9374 37.1294 20.9374 37.6847C20.9374 38.24 21.158 38.7725 21.5506 39.1652C21.9433 39.5578 22.4758 39.7784 23.0311 39.7784H43.9686C44.5239 39.7784 45.0565 39.5578 45.4491 39.1652C45.8418 38.7725 46.0624 38.24 46.0624 37.6847C46.0624 37.1294 45.8418 36.5968 45.4491 36.2041C45.0565 35.8115 44.5239 35.5909 43.9686 35.5909ZM66.9999 27.2159V33.4972C66.9974 35.7176 66.1142 37.8463 64.5441 39.4164C62.9741 40.9865 60.8453 41.8697 58.6249 41.8722H57.2647C55.5478 45.6357 52.2253 48.9383 47.4157 51.6102C41.9139 54.6665 36.0247 56.0489 34.3507 56.3996C33.7896 56.5182 33.2099 56.5182 32.6488 56.3996C30.9751 56.0489 25.0859 54.6665 19.5838 51.6102C14.7744 48.938 11.4522 45.6359 9.73503 41.8722H8.37488C6.15446 41.8697 4.02569 40.9865 2.45561 39.4164C0.885536 37.8463 0.0023717 35.7176 -0.00012207 33.4972L-0.00012207 27.2159C0.0023717 24.9955 0.885536 22.8667 2.45561 21.2966C4.02569 19.7266 6.15446 18.8434 8.37488 18.8409H8.64471C8.85686 18.2746 9.18889 17.7607 9.61807 17.3346C10.0472 16.9085 10.5634 16.5802 11.1313 16.3721L32.0688 8.75845C32.9933 8.42284 34.0064 8.42284 34.931 8.75845L55.8685 16.3719C56.4363 16.58 56.9524 16.9084 57.3815 17.3346C57.8107 17.7607 58.1427 18.2745 58.3548 18.8409H58.6249C60.8453 18.8434 62.9741 19.7266 64.5441 21.2966C66.1142 22.8667 66.9974 24.9955 66.9999 27.2159ZM8.51961 37.6847C8.42367 36.9909 8.37531 36.2913 8.37488 35.5909V23.0284C7.26467 23.0297 6.20028 23.4712 5.41525 24.2563C4.63021 25.0413 4.18862 26.1057 4.18738 27.2159V33.4972C4.18862 34.6074 4.63021 35.6717 5.41525 36.4568C6.20028 37.2418 7.26467 37.6834 8.37488 37.6847H8.51961ZM54.4374 35.5909V20.3076L33.4999 12.6939L12.5624 20.3073V35.5909C12.5624 47.5656 31.3643 51.852 33.508 52.3014C35.6358 51.852 54.4374 47.5656 54.4374 35.5909ZM62.8124 27.2159C62.8111 26.1057 62.3695 25.0413 61.5845 24.2563C60.7995 23.4712 59.7351 23.0297 58.6249 23.0284V35.5909C58.6244 36.2913 58.5761 36.9909 58.4801 37.6847H58.6249C59.7351 37.6834 60.7995 37.2418 61.5845 36.4568C62.3695 35.6717 62.8111 34.6074 62.8124 33.4972V27.2159Z" fill="white"/>
</g>
<defs>
<clipPath id="clip0">
<rect width="67" height="67" fill="white" transform="translate(-0.00012207)"/>
</clipPath>
</defs>
</svg>
