<svg width="61" height="57" viewBox="0 0 61 57" fill="none" xmlns="http://www.w3.org/2000/svg">
    <path d="M27.4039 51.9973L29.0203 51.7892V50.1595V40.9865H32.2185V50.1239V51.7712L33.8545 51.9641C36.7635 52.307 39.1869 53.1105 40.8244 54.1154C41.3075 54.4119 41.6934 54.7056 41.9982 54.9898H19.5137C19.8028 54.7209 20.165 54.4432 20.614 54.1623C22.2026 53.1685 24.5598 52.3635 27.4039 51.9973Z" stroke="white" stroke-width="3.70588"/>
    <path d="M21.9779 4.55101L21.9641 4.39759L21.9487 4.33871C21.9489 4.32205 21.9504 4.29741 21.9552 4.26651C21.9691 4.1779 22.021 3.9545 22.3095 3.66368C22.9433 3.02485 24.9517 1.85325 30.7237 1.85325C36.4973 1.85325 38.5083 3.02479 39.1435 3.66443C39.4328 3.95568 39.485 4.17945 39.499 4.26808C39.5038 4.29891 39.5053 4.3235 39.5055 4.34014L39.4904 4.39811L39.4767 4.55073L37.5054 26.4229H23.9458L21.9779 4.55101Z" stroke="white" stroke-width="3.70588"/>
    <path d="M39.4679 33.9631L39.4697 33.9631C39.6648 33.9629 40.0002 34.0585 40.489 34.5877C40.9764 35.1154 41.4403 35.8938 41.8491 36.7886C42.2496 37.6654 42.5546 38.5583 42.7606 39.2421C42.8627 39.5811 42.9386 39.8618 42.9881 40.0547C42.9937 40.0764 42.9989 40.0969 43.0038 40.1162C42.9757 40.4196 42.883 40.5997 42.8227 40.6761C42.7908 40.7164 42.7685 40.7292 42.7578 40.7344C42.7487 40.7389 42.7121 40.7559 42.6243 40.7559H18.8267C18.7421 40.7559 18.7065 40.7395 18.697 40.7348C18.6857 40.7293 18.6624 40.7158 18.6297 40.6744C18.5673 40.5956 18.4728 40.4112 18.4461 40.1026C18.4519 40.0779 18.4581 40.0513 18.4649 40.0227C18.5114 39.8276 18.582 39.5442 18.6767 39.2025C18.8675 38.5135 19.1485 37.613 19.5144 36.7279C19.8887 35.8226 20.3098 35.0376 20.7445 34.5094C20.957 34.2511 21.1324 34.1044 21.2567 34.0287C21.3655 33.9625 21.4125 33.963 21.4197 33.9631C21.4199 33.9631 21.4201 33.9631 21.4202 33.9631L39.4679 33.9631Z" stroke="white" stroke-width="3.70588"/>
    <mask id="path-4-inside-1" fill="white">
    <path fill-rule="evenodd" clip-rule="evenodd" d="M48.4553 26.6975C48.4553 28.1047 47.6965 28.3897 46.7595 28.3897C45.8226 28.3897 45.0638 28.1047 45.0638 26.6975V15.9209C45.0638 14.5102 45.8226 14.3071 46.7595 14.3071C47.6965 14.3071 48.4553 14.5137 48.4553 15.9209V26.6975Z"/>
    </mask>
    <path d="M44.7494 26.6975C44.7494 26.7638 44.7497 25.8976 45.634 25.1852C46.3454 24.6122 47.0027 24.6838 46.7595 24.6838V32.0955C47.4533 32.0955 48.9585 32.0246 50.2835 30.9573C51.7815 29.7506 52.1612 28.0383 52.1612 26.6975H44.7494ZM46.7595 24.6838C46.5163 24.6838 47.1737 24.6122 47.885 25.1852C48.7694 25.8976 48.7697 26.7638 48.7697 26.6975H41.3579C41.3579 28.0383 41.7376 29.7506 43.2356 30.9573C44.5605 32.0246 46.0658 32.0955 46.7595 32.0955V24.6838ZM48.7697 26.6975V15.9209H41.3579V26.6975H48.7697ZM48.7697 15.9209C48.7697 15.879 48.7782 16.0942 48.6443 16.4336C48.4917 16.8203 48.2036 17.2391 47.7651 17.5636C47.3612 17.8626 46.9926 17.9611 46.8347 17.9931C46.6898 18.0224 46.634 18.013 46.7595 18.013V10.6012C46.2253 10.6012 44.7068 10.6061 43.3555 11.6063C41.7368 12.8045 41.3579 14.5893 41.3579 15.9209H48.7697ZM46.7595 18.013C46.8824 18.013 46.8255 18.0223 46.6796 17.9926C46.5208 17.9602 46.1534 17.8612 45.7512 17.5629C45.3148 17.2393 45.0276 16.8221 44.8751 16.436C44.7412 16.0967 44.7494 15.8811 44.7494 15.9209H52.1612C52.1612 14.5874 51.7804 12.8068 50.1664 11.6097C48.8169 10.6089 47.301 10.6012 46.7595 10.6012V18.013ZM44.7494 15.9209V26.6975H52.1612V15.9209H44.7494Z" fill="white" mask="url(#path-4-inside-1)"/>
    <mask id="path-6-inside-2" fill="white">
    <path fill-rule="evenodd" clip-rule="evenodd" d="M16.39 26.6975C16.39 28.1047 15.6312 28.3897 14.6943 28.3897C13.7573 28.3897 12.9985 28.1047 12.9985 26.6975V15.9209C12.9985 14.5102 13.7573 14.3071 14.6943 14.3071C15.6312 14.3071 16.39 14.5137 16.39 15.9209V26.6975Z"/>
    </mask>
    <path d="M12.6842 26.6975C12.6842 26.7638 12.6844 25.8976 13.5688 25.1852C14.2801 24.6122 14.9375 24.6838 14.6943 24.6838V32.0955C15.388 32.0955 16.8933 32.0246 18.2183 30.9573C19.7162 29.7506 20.0959 28.0383 20.0959 26.6975H12.6842ZM14.6943 24.6838C14.4511 24.6838 15.1085 24.6122 15.8198 25.1852C16.7041 25.8976 16.7044 26.7638 16.7044 26.6975H9.29265C9.29265 28.0383 9.67233 29.7506 11.1703 30.9573C12.4953 32.0246 14.0005 32.0955 14.6943 32.0955V24.6838ZM16.7044 26.6975V15.9209H9.29265V26.6975H16.7044ZM16.7044 15.9209C16.7044 15.879 16.713 16.0942 16.579 16.4336C16.4265 16.8203 16.1384 17.2391 15.6999 17.5636C15.2959 17.8626 14.9273 17.9611 14.7695 17.9931C14.6246 18.0224 14.5687 18.013 14.6943 18.013V10.6012C14.16 10.6012 12.6415 10.6061 11.2902 11.6063C9.67155 12.8045 9.29265 14.5893 9.29265 15.9209H16.7044ZM14.6943 18.013C14.8171 18.013 14.7602 18.0223 14.6143 17.9926C14.4555 17.9602 14.0882 17.8612 13.6859 17.5629C13.2496 17.2393 12.9623 16.8221 12.8099 16.436C12.6759 16.0967 12.6842 15.8811 12.6842 15.9209H20.0959C20.0959 14.5874 19.7151 12.8068 18.1011 11.6097C16.7517 10.6089 15.2357 10.6012 14.6943 10.6012V18.013ZM12.6842 15.9209V26.6975H20.0959V15.9209H12.6842Z" fill="white" mask="url(#path-6-inside-2)"/>
</svg>
