
<svg width="503" height="508" viewBox="0 0 503 508" fill="none" xmlns="http://www.w3.org/2000/svg">
<path d="M494.697 16.6876L487.298 15.0403L491.087 8.25893L485.475 14.4228L473.257 19.6818C472.173 18.5159 470.341 17.7184 467.517 18.4187C460.05 20.2837 459.831 16.2968 451.538 19.3224C449.838 19.9497 450.41 18.5036 445.048 20.2751C441.319 21.4994 438.803 27.7536 436.31 28.2894C412.249 33.4475 421.781 54.0039 425.105 58.0728C429.231 63.1366 425.802 64.8709 423.973 63.0508C421.119 60.1906 417.586 55.5034 410.805 48.8147C387.57 25.8596 344.287 49.1982 354.075 85.1513C363.297 119.012 399.967 152.327 415.298 167.972C429.169 182.126 453.274 220.818 421.844 235.081C411.159 239.937 401.992 240.308 394.185 238.333C405.151 220.423 404.516 197.779 391.562 184.291C373.727 165.736 360.627 176.004 360.627 176.004C381.38 175.988 407.446 202.297 385.968 230.484C385.108 231.611 384.186 232.691 383.208 233.717C374.01 228.261 367.398 220.238 362.911 215.807C360.92 213.832 342.746 190.635 320.157 191.131C322.136 167.056 304.748 142.582 280.906 129.457C277.785 127.748 274.509 126.34 271.122 125.252C268.787 107.254 259.952 86.9318 232.47 79.1797C190.606 67.3714 172.777 98.6282 166.106 117.07C160.389 132.858 145.071 203.689 142.493 215.161C140.046 226.1 124.73 245.71 110.057 233.73C98.7381 224.501 105.865 203.852 107.58 195.903C109.424 187.354 101.848 176.887 91.3973 178.464C78.8738 180.351 76.5279 191.874 75.0921 195.585C72.0619 203.406 64.9924 199.54 63.57 198.607C61.4251 197.219 60.0069 190.953 56.5922 189.002C51.69 186.2 51.9721 187.729 50.4271 186.786C42.9069 182.151 41.8863 186.008 34.946 182.702C32.7819 181.668 31.0693 181.769 29.808 182.352C29.386 182.624 29.1022 182.908 28.7042 183.272L17.7616 176.32L13.2022 169.352L16.0159 176.399L8.29633 177.093L16.5391 178.255L27.3442 185.117C26.7925 186.741 27.0029 188.964 29.5083 191.103C35.3574 196.104 32.2563 198.6 39.5469 203.595C41.0438 204.613 39.5338 204.986 44.094 208.317C47.2566 210.638 53.7998 209.046 55.6935 210.773C73.8855 227.355 85.0299 207.631 86.396 202.548C88.0993 196.245 91.5131 198.025 91.0992 200.569C90.4285 204.561 88.6864 210.162 87.2034 219.578C82.0891 251.874 126.246 273.528 149.738 244.621C171.849 217.4 177.555 168.14 181.326 146.553C184.757 127.018 202.127 84.8568 231.998 102.144C242.161 108.018 247.792 115.267 250.741 122.767C229.809 124.264 211.797 137.975 208.396 156.386C203.719 181.693 219.681 186.384 219.681 186.384C207.573 169.496 213.772 132.961 249.157 134.031C250.572 134.077 251.984 134.199 253.387 134.396C254.311 145.058 251.653 155.116 250.67 161.339C250.236 164.016 242.572 190.396 254.132 208.499C232.46 217.421 218.233 242.798 216.309 269.249C216.041 272.912 216.146 276.463 216.554 279.899C201.188 289.536 186.432 306.046 190.846 334.289C197.565 377.321 233.36 380.531 252.888 378.924C269.588 377.552 340.278 361.987 351.756 359.561C362.712 357.238 386.89 363.014 382.138 381.357C378.465 395.505 356.753 397.622 348.835 399.364C340.286 401.246 333.956 412.51 339.742 421.364C346.678 431.978 358.111 429.313 362.068 429.082C370.445 428.589 369.868 436.633 369.615 438.318C369.246 440.853 364.154 444.753 363.804 448.658C363.302 454.287 364.573 453.397 364.358 455.195C363.277 463.978 367.205 463.284 367.09 470.993C367.058 473.325 367.825 474.816 368.833 475.723L368.87 475.682L369.167 476L369.462 476.227V476.239C369.76 476.435 370.083 476.588 370.423 476.694L368.301 491.414L363.823 498.448L369.098 492.979L372.9 499.753L370.58 491.742L372.725 476.876C374.35 476.616 376.129 475.454 376.984 472.445C379.089 465.034 382.646 466.821 384.136 458.104C384.445 456.319 385.398 457.538 386.535 452.001C387.334 448.154 383.16 442.856 383.929 440.421C391.401 416.938 368.852 415.019 363.681 415.882C357.247 416.959 357.433 413.113 359.926 412.437C363.828 411.37 369.634 410.626 378.797 408.061C410.241 399.245 411.504 350.039 375.485 340.696C341.549 331.904 294.462 347.238 273.302 352.792C254.142 357.816 208.636 359.566 211.883 325.163C212.982 313.464 217.208 305.314 222.791 299.512C232.875 317.93 252.823 328.618 270.947 324.044C295.889 317.768 293.488 301.282 293.488 301.282C283.196 319.325 247.464 328.921 233.684 296.259C233.14 294.95 232.663 293.614 232.253 292.257C241.554 286.967 251.783 285.204 257.853 283.506C260.611 282.739 290.939 278.285 301.116 257.28C319.661 270.661 347.886 270.189 371.193 258.991C374.502 257.411 377.529 255.546 380.306 253.492C396.282 262.061 417.929 266.69 440.216 248.837C474.178 221.62 459.181 188.915 448.096 172.738C438.605 158.899 390.026 105.184 382.203 96.4104C374.774 88.0344 367.754 64.1624 386.02 59.1844C400.1 55.3466 412.724 73.1726 418.173 79.201C424.044 85.6826 436.941 85.6046 441.754 76.1749C447.513 64.8754 439.518 56.2564 437.35 52.9319C432.766 45.9014 440.018 42.4123 441.603 41.7831C443.979 40.8503 449.892 43.3447 453.456 41.6973C458.59 39.3402 457.188 38.6758 458.849 37.9705C466.996 34.5443 464.451 31.4742 471.175 27.7475C473.031 26.72 473.963 25.4777 474.337 24.2645L474.269 24.0285C474.567 22.9822 474.533 22.2639 474.382 21.6959L486.384 16.5349L494.697 16.6876ZM271.191 149.499C271.421 147.253 271.628 144.626 271.754 141.725C283.309 149.622 291.682 162.385 295.601 174.159C301.268 191.271 294.984 203.312 288.167 204.09C265.498 206.689 269.448 167.005 271.191 149.499ZM238.532 269.744C236.398 270.48 233.925 271.375 231.228 272.474C233.595 258.668 241.694 245.724 250.756 237.254C263.918 224.961 277.466 225.669 281.016 231.553C292.812 251.1 255.139 264.033 238.532 269.744ZM326.342 244.928C309.144 239.598 303.037 227.457 306.365 221.455C317.452 201.483 347.376 227.803 360.577 239.416C362.267 240.908 364.271 242.615 366.566 244.403C353.424 249.21 338.175 248.607 326.342 244.928Z" fill="#17C677" fill-opacity="0.1"/>
<path d="M388.994 500.108H390.555V495.554H392.331V494.455H387.272V495.554H388.994V500.108ZM392.792 499.921V494.56H395.15L396.013 498.191H396.028L396.881 494.56H399.183V499.921H397.888V495.434L397.863 495.418L396.624 499.921H395.281L394.105 495.378L394.087 495.403V499.921H392.792Z" fill="#17C677" fill-opacity="0.1"/>
</svg>
