<svg width="218" height="87" viewBox="0 0 218 87" fill="none" xmlns="http://www.w3.org/2000/svg">
<path d="M99.8144 15.4085C99.6321 15.2019 99.4194 15.0196 99.1763 14.8616C98.9333 14.6915 98.6598 14.5456 98.356 14.4241C98.0522 14.3026 97.724 14.2054 97.3716 14.1324C97.0313 14.0595 96.6667 14.0231 96.2778 14.0231C95.1475 14.0231 94.315 14.2418 93.7803 14.6793C93.2577 15.1047 92.9964 15.6881 92.9964 16.4294C92.9964 16.9399 93.1179 17.3409 93.361 17.6326C93.6162 17.9243 94.0112 18.1613 94.5459 18.3436C95.0807 18.5259 95.7612 18.7142 96.5877 18.9087C97.5113 19.1031 98.3074 19.3341 98.9758 19.6014C99.6442 19.8688 100.161 20.2334 100.525 20.6952C100.89 21.1449 101.072 21.7587 101.072 22.5365C101.072 23.132 100.957 23.6485 100.726 24.086C100.495 24.5235 100.173 24.8881 99.7597 25.1798C99.3465 25.4715 98.8543 25.6903 98.2831 25.8361C97.7119 25.9698 97.086 26.0366 96.4054 26.0366C95.7369 26.0366 95.0928 25.9698 94.473 25.8361C93.8653 25.6903 93.288 25.4836 92.7411 25.2163C92.1942 24.9367 91.6838 24.5843 91.2098 24.1589L91.8479 23.1198C92.0788 23.3629 92.3522 23.5938 92.6682 23.8126C92.9964 24.0192 93.3549 24.2075 93.7438 24.3777C94.1449 24.5478 94.5702 24.6815 95.0199 24.7788C95.4817 24.8638 95.9557 24.9064 96.4418 24.9064C97.4749 24.9064 98.277 24.718 98.8482 24.3412C99.4316 23.9645 99.7232 23.4054 99.7232 22.6641C99.7232 22.1293 99.5774 21.704 99.2857 21.388C98.994 21.0598 98.5565 20.7925 97.9732 20.5859C97.3898 20.3792 96.6727 20.1787 95.822 19.9843C94.9227 19.7777 94.1631 19.5467 93.5433 19.2915C92.9234 19.0363 92.4555 18.7021 92.1396 18.2889C91.8357 17.8635 91.6838 17.3045 91.6838 16.6117C91.6838 15.8096 91.8783 15.1351 92.2672 14.5882C92.6682 14.0291 93.2151 13.6098 93.9079 13.3303C94.6006 13.0386 95.3966 12.8928 96.296 12.8928C96.8672 12.8928 97.3959 12.9536 97.882 13.0751C98.3803 13.1845 98.836 13.3485 99.2493 13.5673C99.6746 13.7861 100.07 14.0595 100.434 14.3877L99.8144 15.4085ZM107.464 25.4715C107.367 25.508 107.215 25.5748 107.009 25.672C106.802 25.7693 106.553 25.8543 106.261 25.9272C105.969 26.0002 105.653 26.0366 105.313 26.0366C104.961 26.0366 104.626 25.9698 104.311 25.8361C104.007 25.7024 103.764 25.5019 103.581 25.2345C103.399 24.955 103.308 24.6147 103.308 24.2136V17.4138H101.995V16.4294H103.308V13.2209H104.547V16.4294H106.735V17.4138H104.547V23.8673C104.572 24.2075 104.693 24.4628 104.912 24.6329C105.143 24.8031 105.404 24.8881 105.696 24.8881C106.036 24.8881 106.346 24.8334 106.626 24.7241C106.905 24.6025 107.075 24.5175 107.136 24.4688L107.464 25.4715ZM108.922 22.0078V16.4294H110.162V21.789C110.162 22.8707 110.344 23.6789 110.709 24.2136C111.085 24.7484 111.638 25.0157 112.367 25.0157C112.854 25.0157 113.321 24.9124 113.771 24.7058C114.233 24.4871 114.64 24.1832 114.993 23.7943C115.345 23.3933 115.612 22.9314 115.795 22.4089V16.4294H117.034V24.4324C117.034 24.6025 117.071 24.7301 117.144 24.8152C117.217 24.8881 117.326 24.9307 117.472 24.9428V25.9272C117.326 25.9394 117.211 25.9455 117.125 25.9455C117.04 25.9576 116.961 25.9637 116.888 25.9637C116.645 25.9394 116.433 25.8422 116.25 25.672C116.08 25.5019 115.989 25.2953 115.977 25.0522L115.941 23.7761C115.527 24.5053 114.962 25.0765 114.245 25.4897C113.54 25.9029 112.775 26.1095 111.948 26.1095C110.952 26.1095 110.198 25.7632 109.688 25.0704C109.177 24.3777 108.922 23.3568 108.922 22.0078ZM119.199 21.2057C119.199 20.3063 119.381 19.486 119.746 18.7446C120.123 17.9911 120.639 17.3895 121.296 16.9399C121.952 16.4902 122.699 16.2653 123.538 16.2653C124.328 16.2653 125.033 16.478 125.653 16.9034C126.285 17.3166 126.777 17.821 127.129 18.4165V12.6193H128.369V24.4324C128.369 24.6025 128.405 24.7301 128.478 24.8152C128.551 24.8881 128.661 24.9307 128.806 24.9428V25.9272C128.563 25.9637 128.375 25.9759 128.241 25.9637C127.986 25.9516 127.761 25.8482 127.567 25.6538C127.372 25.4593 127.275 25.2467 127.275 25.0157V24.086C126.898 24.7058 126.388 25.198 125.744 25.5626C125.1 25.9272 124.431 26.1095 123.738 26.1095C123.082 26.1095 122.474 25.9759 121.915 25.7085C121.369 25.4411 120.888 25.0765 120.475 24.6147C120.074 24.1529 119.758 23.6303 119.527 23.0469C119.309 22.4514 119.199 21.8376 119.199 21.2057ZM127.129 22.6641V19.729C126.971 19.2915 126.716 18.8965 126.364 18.5441C126.011 18.1795 125.61 17.8939 125.16 17.6873C124.723 17.4685 124.285 17.3591 123.848 17.3591C123.337 17.3591 122.876 17.4685 122.462 17.6873C122.049 17.8939 121.691 18.1795 121.387 18.5441C121.095 18.9087 120.87 19.3219 120.712 19.7837C120.554 20.2456 120.475 20.7195 120.475 21.2057C120.475 21.7161 120.56 22.2022 120.73 22.6641C120.913 23.1259 121.168 23.5391 121.496 23.9037C121.824 24.2562 122.201 24.5296 122.626 24.7241C123.052 24.9185 123.514 25.0157 124.012 25.0157C124.328 25.0157 124.656 24.955 124.996 24.8334C125.337 24.7119 125.659 24.5478 125.962 24.3412C126.278 24.1225 126.54 23.8673 126.746 23.5756C126.953 23.2839 127.081 22.9801 127.129 22.6641ZM135.279 26.1095C134.599 26.1095 133.967 25.9819 133.383 25.7267C132.8 25.4593 132.296 25.1008 131.87 24.6511C131.445 24.1893 131.111 23.6606 130.868 23.0651C130.637 22.4696 130.521 21.8316 130.521 21.151C130.521 20.2638 130.722 19.4495 131.123 18.7082C131.536 17.9668 132.101 17.3774 132.818 16.9399C133.535 16.4902 134.35 16.2653 135.261 16.2653C136.197 16.2653 137.011 16.4902 137.704 16.9399C138.409 17.3895 138.962 17.985 139.363 18.7264C139.764 19.4556 139.964 20.2577 139.964 21.1328C139.964 21.23 139.964 21.3272 139.964 21.4244C139.964 21.5095 139.958 21.5764 139.946 21.625H131.816C131.876 22.3056 132.065 22.9132 132.381 23.448C132.709 23.9706 133.128 24.3898 133.639 24.7058C134.161 25.0097 134.726 25.1616 135.334 25.1616C135.954 25.1616 136.537 25.0036 137.084 24.6876C137.643 24.3716 138.032 23.9584 138.251 23.448L139.326 23.7396C139.132 24.1893 138.834 24.5965 138.433 24.9611C138.032 25.3257 137.558 25.6113 137.011 25.8179C136.476 26.0123 135.899 26.1095 135.279 26.1095ZM131.779 20.7317H138.798C138.749 20.039 138.561 19.4313 138.233 18.9087C137.917 18.3861 137.497 17.979 136.975 17.6873C136.464 17.3835 135.899 17.2315 135.279 17.2315C134.659 17.2315 134.094 17.3835 133.584 17.6873C133.073 17.979 132.654 18.3922 132.326 18.9269C132.01 19.4495 131.828 20.0511 131.779 20.7317ZM149.862 25.9272H148.622V20.6223C148.622 19.5042 148.458 18.6899 148.13 18.1795C147.802 17.6569 147.285 17.3956 146.58 17.3956C146.094 17.3956 145.614 17.5171 145.14 17.7602C144.666 17.9911 144.247 18.3132 143.882 18.7264C143.53 19.1275 143.275 19.5893 143.117 20.1119V25.9272H141.877V16.4294H143.007V18.5806C143.262 18.1187 143.597 17.7177 144.01 17.3774C144.423 17.0249 144.891 16.7515 145.414 16.557C145.936 16.3626 146.477 16.2653 147.036 16.2653C147.559 16.2653 148.002 16.3626 148.367 16.557C148.731 16.7515 149.023 17.031 149.242 17.3956C149.461 17.7481 149.619 18.1795 149.716 18.6899C149.813 19.1882 149.862 19.7473 149.862 20.3671V25.9272ZM156.974 25.4715C156.876 25.508 156.725 25.5748 156.518 25.672C156.311 25.7693 156.062 25.8543 155.771 25.9272C155.479 26.0002 155.163 26.0366 154.823 26.0366C154.47 26.0366 154.136 25.9698 153.82 25.8361C153.516 25.7024 153.273 25.5019 153.091 25.2345C152.908 24.955 152.817 24.6147 152.817 24.2136V17.4138H151.505V16.4294H152.817V13.2209H154.057V16.4294H156.244V17.4138H154.057V23.8673C154.081 24.2075 154.203 24.4628 154.421 24.6329C154.652 24.8031 154.914 24.8881 155.205 24.8881C155.546 24.8881 155.856 24.8334 156.135 24.7241C156.415 24.6025 156.585 24.5175 156.646 24.4688L156.974 25.4715ZM101.437 35.1142H96.8247V46.9272H95.5486V35.1142H90.9364V33.9839H101.437V35.1142ZM105.175 47.1095C104.494 47.1095 103.862 46.9819 103.279 46.7267C102.696 46.4593 102.191 46.1008 101.766 45.6511C101.34 45.1893 101.006 44.6606 100.763 44.0651C100.532 43.4696 100.417 42.8316 100.417 42.151C100.417 41.2638 100.617 40.4495 101.018 39.7082C101.432 38.9668 101.997 38.3774 102.714 37.9399C103.431 37.4902 104.245 37.2653 105.157 37.2653C106.092 37.2653 106.907 37.4902 107.599 37.9399C108.304 38.3895 108.857 38.985 109.258 39.7264C109.659 40.4556 109.86 41.2577 109.86 42.1328C109.86 42.23 109.86 42.3272 109.86 42.4244C109.86 42.5095 109.854 42.5764 109.842 42.625H101.711C101.772 43.3056 101.96 43.9132 102.276 44.448C102.604 44.9706 103.024 45.3898 103.534 45.7058C104.057 46.0097 104.622 46.1616 105.23 46.1616C105.849 46.1616 106.433 46.0036 106.98 45.6876C107.539 45.3716 107.928 44.9584 108.146 44.448L109.222 44.7396C109.027 45.1893 108.73 45.5965 108.329 45.9611C107.928 46.3257 107.454 46.6113 106.907 46.8179C106.372 47.0123 105.795 47.1095 105.175 47.1095ZM101.675 41.7317H108.693C108.645 41.039 108.456 40.4313 108.128 39.9087C107.812 39.3861 107.393 38.979 106.87 38.6873C106.36 38.3835 105.795 38.2315 105.175 38.2315C104.555 38.2315 103.99 38.3835 103.479 38.6873C102.969 38.979 102.55 39.3922 102.222 39.9269C101.906 40.4495 101.723 41.0511 101.675 41.7317ZM115.893 47.1095C115.2 47.1095 114.562 46.9819 113.978 46.7267C113.407 46.4593 112.903 46.0947 112.465 45.6329C112.04 45.1711 111.706 44.6424 111.463 44.0469C111.232 43.4514 111.116 42.8194 111.116 42.151C111.116 41.2516 111.317 40.4313 111.718 39.6899C112.119 38.9486 112.678 38.3591 113.395 37.9216C114.112 37.4841 114.938 37.2653 115.874 37.2653C116.761 37.2653 117.545 37.472 118.226 37.8852C118.907 38.2862 119.411 38.8331 119.739 39.5259L118.536 39.9087C118.269 39.4226 117.892 39.0458 117.406 38.7784C116.932 38.4989 116.403 38.3591 115.82 38.3591C115.188 38.3591 114.61 38.5232 114.088 38.8514C113.565 39.1795 113.146 39.6292 112.83 40.2004C112.526 40.7716 112.374 41.4218 112.374 42.151C112.374 42.868 112.532 43.5182 112.848 44.1016C113.164 44.685 113.583 45.1529 114.106 45.5053C114.629 45.8456 115.206 46.0157 115.838 46.0157C116.251 46.0157 116.646 45.9428 117.023 45.797C117.412 45.6511 117.746 45.4567 118.025 45.2136C118.317 44.9584 118.512 44.685 118.609 44.3933L119.83 44.7579C119.66 45.2075 119.374 45.6147 118.973 45.9793C118.584 46.3317 118.123 46.6113 117.588 46.8179C117.065 47.0123 116.5 47.1095 115.893 47.1095ZM129.762 46.9272H128.523V41.6223C128.523 40.5528 128.334 39.7507 127.958 39.216C127.581 38.6691 127.04 38.3956 126.335 38.3956C125.873 38.3956 125.412 38.5171 124.95 38.7602C124.5 38.9911 124.099 39.3132 123.747 39.7264C123.406 40.1275 123.163 40.5893 123.017 41.1119V46.9272H121.778V33.6193H123.017V39.5806C123.394 38.8757 123.917 38.3166 124.585 37.9034C125.266 37.478 125.989 37.2653 126.754 37.2653C127.301 37.2653 127.763 37.3626 128.14 37.557C128.529 37.7515 128.839 38.0371 129.07 38.4138C129.313 38.7784 129.489 39.2099 129.598 39.7082C129.708 40.1943 129.762 40.7473 129.762 41.3671V46.9272ZM140.391 46.9272H139.151V41.6223C139.151 40.5042 138.987 39.6899 138.659 39.1795C138.331 38.6569 137.814 38.3956 137.109 38.3956C136.623 38.3956 136.143 38.5171 135.669 38.7602C135.195 38.9911 134.776 39.3132 134.411 39.7264C134.059 40.1275 133.804 40.5893 133.646 41.1119V46.9272H132.406V37.4294H133.536V39.5806C133.791 39.1187 134.126 38.7177 134.539 38.3774C134.952 38.0249 135.42 37.7515 135.943 37.557C136.465 37.3626 137.006 37.2653 137.565 37.2653C138.088 37.2653 138.531 37.3626 138.896 37.557C139.26 37.7515 139.552 38.031 139.771 38.3956C139.99 38.7481 140.148 39.1795 140.245 39.6899C140.342 40.1882 140.391 40.7473 140.391 41.3671V46.9272ZM143.034 46.9272V37.4294H144.274V46.9272H143.034ZM143.034 35.4423V33.6193H144.274V35.4423H143.034ZM151.124 47.1095C150.431 47.1095 149.793 46.9819 149.21 46.7267C148.639 46.4593 148.134 46.0947 147.697 45.6329C147.272 45.1711 146.937 44.6424 146.694 44.0469C146.463 43.4514 146.348 42.8194 146.348 42.151C146.348 41.2516 146.548 40.4313 146.949 39.6899C147.351 38.9486 147.91 38.3591 148.627 37.9216C149.344 37.4841 150.17 37.2653 151.106 37.2653C151.993 37.2653 152.777 37.472 153.458 37.8852C154.138 38.2862 154.643 38.8331 154.971 39.5259L153.767 39.9087C153.5 39.4226 153.123 39.0458 152.637 38.7784C152.163 38.4989 151.635 38.3591 151.051 38.3591C150.419 38.3591 149.842 38.5232 149.319 38.8514C148.797 39.1795 148.377 39.6292 148.062 40.2004C147.758 40.7716 147.606 41.4218 147.606 42.151C147.606 42.868 147.764 43.5182 148.08 44.1016C148.396 44.685 148.815 45.1529 149.338 45.5053C149.86 45.8456 150.437 46.0157 151.069 46.0157C151.483 46.0157 151.878 45.9428 152.254 45.797C152.643 45.6511 152.978 45.4567 153.257 45.2136C153.549 44.9584 153.743 44.685 153.84 44.3933L155.062 44.7579C154.892 45.2075 154.606 45.6147 154.205 45.9793C153.816 46.3317 153.354 46.6113 152.82 46.8179C152.297 47.0123 151.732 47.1095 151.124 47.1095ZM156.244 44.1927C156.244 43.5972 156.414 43.0868 156.754 42.6614C157.094 42.2239 157.562 41.8897 158.158 41.6588C158.765 41.4157 159.464 41.2942 160.254 41.2942C160.716 41.2942 161.196 41.3306 161.694 41.4036C162.193 41.4765 162.636 41.5859 163.025 41.7317V40.9296C163.025 40.1275 162.788 39.4894 162.314 39.0154C161.84 38.5414 161.184 38.3045 160.345 38.3045C159.835 38.3045 159.331 38.4017 158.832 38.5961C158.346 38.7784 157.836 39.0519 157.301 39.4165L156.827 38.5414C157.447 38.1161 158.054 37.8001 158.65 37.5935C159.246 37.3747 159.853 37.2653 160.473 37.2653C161.64 37.2653 162.563 37.5996 163.244 38.268C163.925 38.9364 164.265 39.8601 164.265 41.039V45.4324C164.265 45.6025 164.301 45.7301 164.374 45.8152C164.447 45.8881 164.563 45.9307 164.721 45.9428V46.9272C164.587 46.9394 164.471 46.9516 164.374 46.9637C164.277 46.9759 164.204 46.9759 164.155 46.9637C163.852 46.9516 163.621 46.8543 163.463 46.672C163.305 46.4897 163.22 46.2953 163.208 46.0887L163.189 45.3959C162.764 45.9428 162.211 46.3682 161.53 46.672C160.85 46.9637 160.157 47.1095 159.452 47.1095C158.844 47.1095 158.291 46.9819 157.793 46.7267C157.307 46.4593 156.924 46.1069 156.645 45.6694C156.377 45.2197 156.244 44.7275 156.244 44.1927ZM162.606 44.9219C162.74 44.7518 162.843 44.5877 162.916 44.4297C162.989 44.2717 163.025 44.132 163.025 44.0104V42.625C162.612 42.467 162.181 42.3454 161.731 42.2604C161.293 42.1753 160.85 42.1328 160.4 42.1328C159.513 42.1328 158.796 42.309 158.249 42.6614C157.702 43.0139 157.429 43.4939 157.429 44.1016C157.429 44.454 157.52 44.7883 157.702 45.1042C157.884 45.4081 158.152 45.6633 158.504 45.8699C158.857 46.0644 159.27 46.1616 159.744 46.1616C160.339 46.1616 160.892 46.0461 161.403 45.8152C161.925 45.5843 162.326 45.2865 162.606 44.9219ZM166.998 33.6193H168.238V44.7761C168.238 45.2501 168.323 45.56 168.493 45.7058C168.663 45.8517 168.87 45.9246 169.113 45.9246C169.331 45.9246 169.55 45.9003 169.769 45.8517C169.988 45.8031 170.176 45.7544 170.334 45.7058L170.553 46.7085C170.322 46.8057 170.036 46.8847 169.696 46.9455C169.368 47.0062 169.082 47.0366 168.839 47.0366C168.28 47.0366 167.83 46.8726 167.49 46.5444C167.162 46.2163 166.998 45.7666 166.998 45.1954V33.6193ZM91.3921 61.3644C91.3921 60.5745 91.5258 59.8027 91.7932 59.0492C92.0727 58.2836 92.4738 57.5908 92.9964 56.971C93.519 56.339 94.1631 55.8408 94.9287 55.4762C95.6944 55.0994 96.5634 54.911 97.5356 54.911C98.6902 54.911 99.6746 55.1784 100.489 55.7131C101.315 56.2357 101.923 56.9102 102.312 57.7367L101.309 58.3565C101.03 57.7853 100.677 57.3356 100.252 57.0075C99.8265 56.6672 99.3708 56.4241 98.8847 56.2783C98.4107 56.1324 97.9367 56.0595 97.4627 56.0595C96.6849 56.0595 95.9982 56.2175 95.4027 56.5335C94.8072 56.8373 94.3028 57.2505 93.8896 57.7731C93.4886 58.2836 93.1847 58.8609 92.9781 59.505C92.7715 60.137 92.6682 60.7811 92.6682 61.4374C92.6682 62.1544 92.7898 62.8411 93.0328 63.4974C93.2759 64.1536 93.6162 64.737 94.0537 65.2474C94.4912 65.7457 95.0017 66.1468 95.585 66.4506C96.1805 66.7423 96.8247 66.8881 97.5174 66.8881C98.0035 66.8881 98.5018 66.8031 99.0123 66.6329C99.5227 66.4628 99.9967 66.2015 100.434 65.849C100.884 65.4966 101.242 65.0408 101.51 64.4818L102.567 65.0287C102.3 65.6728 101.887 66.2197 101.327 66.6694C100.768 67.119 100.143 67.4593 99.4498 67.6903C98.7692 67.9212 98.1008 68.0366 97.4445 68.0366C96.5573 68.0366 95.743 67.8482 95.0017 67.4715C94.2603 67.0826 93.6162 66.5721 93.0693 65.9402C92.5345 65.296 92.1213 64.579 91.8296 63.789C91.538 62.9869 91.3921 62.1787 91.3921 61.3644ZM108.538 68.1095C107.858 68.1095 107.226 67.9819 106.642 67.7267C106.071 67.4593 105.573 67.1008 105.148 66.6511C104.734 66.1893 104.412 65.6667 104.181 65.0834C103.95 64.4879 103.835 63.862 103.835 63.2057C103.835 62.5251 103.95 61.8931 104.181 61.3098C104.412 60.7142 104.74 60.1916 105.166 59.742C105.591 59.2801 106.089 58.9216 106.661 58.6664C107.244 58.399 107.876 58.2653 108.557 58.2653C109.237 58.2653 109.863 58.399 110.434 58.6664C111.005 58.9216 111.504 59.2801 111.929 59.742C112.354 60.1916 112.683 60.7142 112.913 61.3098C113.144 61.8931 113.26 62.5251 113.26 63.2057C113.26 63.862 113.144 64.4879 112.913 65.0834C112.683 65.6667 112.354 66.1893 111.929 66.6511C111.516 67.1008 111.018 67.4593 110.434 67.7267C109.863 67.9819 109.231 68.1095 108.538 68.1095ZM105.093 63.2239C105.093 63.9288 105.245 64.5729 105.549 65.1563C105.865 65.7275 106.284 66.1832 106.806 66.5235C107.329 66.8517 107.906 67.0157 108.538 67.0157C109.17 67.0157 109.748 66.8456 110.27 66.5053C110.793 66.165 111.212 65.7032 111.528 65.1198C111.844 64.5243 112.002 63.8802 112.002 63.1874C112.002 62.4826 111.844 61.8384 111.528 61.2551C111.212 60.6717 110.793 60.2099 110.27 59.8696C109.748 59.5293 109.17 59.3591 108.538 59.3591C107.906 59.3591 107.329 59.5354 106.806 59.8878C106.296 60.2403 105.883 60.7082 105.567 61.2915C105.251 61.8627 105.093 62.5069 105.093 63.2239ZM129.461 67.9272H128.222V62.6223C128.222 61.5164 128.045 60.7021 127.693 60.1795C127.341 59.6569 126.818 59.3956 126.125 59.3956C125.408 59.3956 124.764 59.6508 124.193 60.1613C123.634 60.6717 123.239 61.328 123.008 62.1301V67.9272H121.768V62.6223C121.768 61.5042 121.598 60.6899 121.258 60.1795C120.918 59.6569 120.395 59.3956 119.69 59.3956C118.985 59.3956 118.347 59.6447 117.776 60.143C117.205 60.6413 116.804 61.2976 116.573 62.1119V67.9272H115.333V58.4294H116.463V60.5806C116.864 59.8392 117.375 59.268 117.995 58.8669C118.627 58.4659 119.325 58.2653 120.091 58.2653C120.881 58.2653 121.519 58.4902 122.005 58.9399C122.491 59.3895 122.789 59.979 122.899 60.7082C123.336 59.906 123.859 59.2984 124.466 58.8852C125.086 58.472 125.785 58.2653 126.563 58.2653C127.098 58.2653 127.547 58.3626 127.912 58.557C128.289 58.7515 128.586 59.031 128.805 59.3956C129.036 59.7481 129.2 60.1795 129.297 60.6899C129.407 61.1882 129.461 61.7473 129.461 62.3671V67.9272ZM146.214 67.9272H144.974V62.6223C144.974 61.5164 144.798 60.7021 144.445 60.1795C144.093 59.6569 143.57 59.3956 142.878 59.3956C142.161 59.3956 141.516 59.6508 140.945 60.1613C140.386 60.6717 139.991 61.328 139.76 62.1301V67.9272H138.521V62.6223C138.521 61.5042 138.351 60.6899 138.01 60.1795C137.67 59.6569 137.147 59.3956 136.442 59.3956C135.738 59.3956 135.1 59.6447 134.528 60.143C133.957 60.6413 133.556 61.2976 133.325 62.1119V67.9272H132.085V58.4294H133.216V60.5806C133.617 59.8392 134.127 59.268 134.747 58.8669C135.379 58.4659 136.078 58.2653 136.844 58.2653C137.633 58.2653 138.272 58.4902 138.758 58.9399C139.244 59.3895 139.542 59.979 139.651 60.7082C140.088 59.906 140.611 59.2984 141.219 58.8852C141.839 58.472 142.537 58.2653 143.315 58.2653C143.85 58.2653 144.3 58.3626 144.664 58.557C145.041 58.7515 145.339 59.031 145.557 59.3956C145.788 59.7481 145.952 60.1795 146.05 60.6899C146.159 61.1882 146.214 61.7473 146.214 62.3671V67.9272ZM148.747 64.0078V58.4294H149.986V63.789C149.986 64.8707 150.169 65.6789 150.533 66.2136C150.91 66.7484 151.463 67.0157 152.192 67.0157C152.678 67.0157 153.146 66.9124 153.596 66.7058C154.058 66.4871 154.465 66.1832 154.817 65.7943C155.17 65.3933 155.437 64.9314 155.619 64.4089V58.4294H156.859V66.4324C156.859 66.6025 156.896 66.7301 156.968 66.8152C157.041 66.8881 157.151 66.9307 157.297 66.9428V67.9272C157.151 67.9394 157.035 67.9455 156.95 67.9455C156.865 67.9576 156.786 67.9637 156.713 67.9637C156.47 67.9394 156.257 67.8422 156.075 67.672C155.905 67.5019 155.814 67.2953 155.802 67.0522L155.765 65.7761C155.352 66.5053 154.787 67.0765 154.07 67.4897C153.365 67.9029 152.599 68.1095 151.773 68.1095C150.776 68.1095 150.023 67.7632 149.512 67.0704C149.002 66.3777 148.747 65.3568 148.747 64.0078ZM167.647 67.9272H166.407V62.6223C166.407 61.5042 166.243 60.6899 165.915 60.1795C165.587 59.6569 165.07 59.3956 164.365 59.3956C163.879 59.3956 163.399 59.5171 162.925 59.7602C162.451 59.9911 162.032 60.3132 161.667 60.7264C161.315 61.1275 161.06 61.5893 160.902 62.1119V67.9272H159.662V58.4294H160.792V60.5806C161.047 60.1187 161.382 59.7177 161.795 59.3774C162.208 59.0249 162.676 58.7515 163.199 58.557C163.721 58.3626 164.262 58.2653 164.821 58.2653C165.344 58.2653 165.787 58.3626 166.152 58.557C166.516 58.7515 166.808 59.031 167.027 59.3956C167.246 59.7481 167.404 60.1795 167.501 60.6899C167.598 61.1882 167.647 61.7473 167.647 62.3671V67.9272ZM170.29 67.9272V58.4294H171.53V67.9272H170.29ZM170.29 56.4423V54.6193H171.53V56.4423H170.29ZM178.818 67.4715C178.72 67.508 178.569 67.5748 178.362 67.672C178.155 67.7693 177.906 67.8543 177.614 67.9272C177.323 68.0002 177.007 68.0366 176.667 68.0366C176.314 68.0366 175.98 67.9698 175.664 67.8361C175.36 67.7024 175.117 67.5019 174.935 67.2345C174.752 66.955 174.661 66.6147 174.661 66.2136V59.4138H173.349V58.4294H174.661V55.2209H175.901V58.4294H178.088V59.4138H175.901V65.8673C175.925 66.2075 176.047 66.4628 176.265 66.6329C176.496 66.8031 176.758 66.8881 177.049 66.8881C177.39 66.8881 177.7 66.8334 177.979 66.7241C178.259 66.6025 178.429 66.5175 178.49 66.4688L178.818 67.4715ZM180.913 70.844C181.084 70.8562 181.248 70.8623 181.406 70.8623C181.564 70.8744 181.679 70.8684 181.752 70.844C181.898 70.8197 182.038 70.7347 182.171 70.5888C182.305 70.443 182.463 70.1635 182.645 69.7502C182.828 69.337 183.083 68.7294 183.411 67.9272L179.273 58.4294H180.585L184.067 66.6511L187.276 58.4294H188.515L183.593 70.68C183.508 70.9109 183.381 71.1236 183.21 71.318C183.04 71.5246 182.828 71.6826 182.572 71.792C182.329 71.9135 182.025 71.9804 181.661 71.9925C181.551 72.0047 181.436 72.0047 181.314 71.9925C181.205 71.9925 181.071 71.9804 180.913 71.9561V70.844Z" fill="white"/>
<path d="M39.0708 1.02405L1.64478 17.1664" stroke="#FDFDFD" stroke-width="1.30769"/>
<path d="M75.374 17.2873L38.2821 1" stroke="#FDFDFD" stroke-width="1.30769"/>
<path d="M1.97852 16.4181V43.7972" stroke="#FDFDFD" stroke-width="1.30769"/>
<path d="M38.3313 80.2865L1.69287 64.41" stroke="#FDFDFD" stroke-width="1.30769"/>
<path d="M75.3992 64.2164L37.7822 80.2863" stroke="#FDFDFD" stroke-width="1.30769"/>
<path d="M38.1152 58.8748L1.47681 42.9742" stroke="#FDFDFD" stroke-width="1.30769"/>
<path d="M74.4203 42.7332L37.6626 59.0205" stroke="#FDFDFD" stroke-width="1.30769"/>
<path d="M74.85 41.9362V64.9898" stroke="#FDFDFD" stroke-width="1.30769"/>
<path d="M38.0448 80.5278V22.2897" stroke="#FDFDFD" stroke-width="1.30769"/>
<path d="M16.6588 21.8792H59.3121" stroke="#FDFDFD" stroke-width="1.30769"/>
<path d="M1.00012 64.4578L11.4785 59.4315" stroke="#FDFDFD" stroke-width="1.30769"/>
<path d="M74.9215 16.5623V27.1708" stroke="#FDFDFD" stroke-width="1.30769"/>
<path d="M74.8972 31.7379C75.4904 31.7379 75.9713 31.251 75.9713 30.6504C75.9713 30.0498 75.4904 29.563 74.8972 29.563C74.304 29.563 73.8231 30.0498 73.8231 30.6504C73.8231 31.251 74.304 31.7379 74.8972 31.7379Z" fill="white"/>
</svg>
